<?xml version="1.0" encoding="UTF-8"?>
<svg version="1.1" xmlns="http://www.w3.org/2000/svg" width="500" height="500">
<path d="M0 0 C8.80171974 0.61358142 17.35954742 2.29549385 26 4 C26 5.32 26 6.64 26 8 C22.04 9.98 22.04 9.98 18 12 C19.9210194 16.07438678 19.9210194 16.07438678 23 19 C26.56304665 18.56323944 28.74733022 16.88340708 31.5625 14.75 C44.29306966 5.58398984 57.02987439 3.29589591 72.40820312 5.31640625 C81.21869228 6.820102 89.10402399 9.30673166 97.234375 13.03125 C101.18806253 14.4161575 104.77407162 14.33897117 108.91796875 14.078125 C109.94857422 14.03945312 109.94857422 14.03945312 111 14 C112 15 112 15 112.3125 17.875 C112 21 112 21 110.5625 22.8125 C102.82957496 26.39605063 97.28580613 24.48574184 89 22 C78.77 32.23 68.54 42.46 58 53 C60.5654594 55.5654594 62.47686668 55.54046087 66 56 C66.165 57.155 66.33 58.31 66.5 59.5 C67.98349689 65.1232551 70.98284771 69.03634482 76 72 C79.55603712 72.50979616 82.97643057 72.56283525 86.56640625 72.59375 C92.00765909 73.23753873 95.24698189 76.19733879 99 80 C98.67 81.98 98.34 83.96 98 86 C99.010625 85.855625 100.02125 85.71125 101.0625 85.5625 C105.9730659 86.10811843 107.41531522 87.71671507 110.71484375 91.17578125 C112 93 112 93 112 96 C107.05 96.99 107.05 96.99 102 98 C104.19797403 100.19797403 105.17546145 100.45897517 108.125 101.125 C109.40375 101.41375 110.6825 101.7025 112 102 C112 103.65 112 105.3 112 107 C110.35 107.33 108.7 107.66 107 108 C107 109.32 107 110.64 107 112 C105.68 112.33 104.36 112.66 103 113 C101.00624891 110.00937337 100.10571418 107.39085683 99 104 C98.67 103.67 98.34 103.34 98 103 C97.34 105.97 96.68 108.94 96 112 C90.33333333 110.58333333 90.33333333 110.58333333 88 108 C87.65167679 105.24606963 87.81679089 102.79393891 88 100 C87.11957031 100.26167969 86.23914063 100.52335937 85.33203125 100.79296875 C82 101 82 101 79.26171875 99.05078125 C77.98748047 97.69533203 77.98748047 97.69533203 76.6875 96.3125 C75.82511719 95.42175781 74.96273437 94.53101563 74.07421875 93.61328125 C70.78639318 89.47099254 70.9330645 86.76799877 71.25 81.625 C71.27968815 77.90903318 71.23788128 75.50481395 68.875 72.5625 C63.23775965 67.37404829 63.23775965 67.37404829 56 66 C55.34 63.69 54.68 61.38 54 59 C51.19490689 60.28477311 49.08937372 61.64249625 46.86791992 63.77807617 C46.28439255 64.33593307 45.70086517 64.89378998 45.09965515 65.46855164 C44.48282364 66.07060928 43.86599213 66.67266693 43.23046875 67.29296875 C42.59007156 67.91722244 41.94967438 68.54147614 41.28987122 69.18464661 C39.94133658 70.50557168 38.59583372 71.82959808 37.25317383 73.15649414 C35.87595197 74.51060224 34.48982299 75.85571031 33.0949707 77.19165039 C31.0786114 79.12285497 29.08991803 81.07905113 27.10546875 83.04296875 C26.47851608 83.63490524 25.85156342 84.22684174 25.20561218 84.8367157 C23.55869458 86.50060566 22.18508157 87.98039418 21 90 C21.05635652 93.77736361 21.81477152 96.44431456 23 100 C23.36436353 104.91890767 23.27438032 108.16107135 20 112 C17.5 113 17.5 113 15 113 C13.3359375 111.81640625 13.3359375 111.81640625 12 110 C11.8828125 107.65234375 11.8828125 107.65234375 12.125 104.9375 C12.25555127 100.60092725 11.80106069 97.97560284 9.6875 94.1875 C4.31472584 84.38829258 3.72758573 74.20212222 3.625 63.25 C3.61106201 62.29198486 3.59712402 61.33396973 3.58276367 60.34692383 C3.6389525 51.88430258 5.23799707 44.10851152 9.8125 36.875 C10.32683594 36.0603125 10.84117188 35.245625 11.37109375 34.40625 C13.78716791 30.83718122 16.33333428 27.38534158 19 24 C18.34 23.38125 17.68 22.7625 17 22.125 C15 20 15 20 15 18 C14.01 18 13.02 18 12 18 C10.35 21.3 8.7 24.6 7 28 C6.01 27.67 5.02 27.34 4 27 C3.32603699 23.43884042 2.66212182 19.87587859 2 16.3125 C1.80921875 15.30509766 1.6184375 14.29769531 1.421875 13.25976562 C1.24140625 12.28330078 1.0609375 11.30683594 0.875 10.30078125 C0.70742188 9.40528564 0.53984375 8.50979004 0.3671875 7.5871582 C0.00282018 5.01987068 -0.06528807 2.58907987 0 0 Z M33 26 C33.62497397 31.68524706 36.58590367 34.26507986 40.56640625 38.10546875 C43.87158136 40.67851839 45.87373844 41.0877928 50 41 C49.95875 41.763125 49.9175 42.52625 49.875 43.3125 C49.77919176 46.22718416 49.77919176 46.22718416 52 49 C54.80969467 47.71977125 56.8539238 46.39285871 59.02441406 44.20263672 C59.58469299 43.64220673 60.14497192 43.08177673 60.722229 42.50436401 C61.31404968 41.90222076 61.90587036 41.30007751 62.515625 40.6796875 C63.13145447 40.06102814 63.74728394 39.44236877 64.3817749 38.80496216 C66.34260336 36.83296186 68.29635301 34.85411263 70.25 32.875 C71.58026799 31.53469836 72.910992 30.19484917 74.2421875 28.85546875 C77.5001015 25.57553411 80.75168533 22.28944058 84 19 C78.35952714 13.35952714 66.35998792 14.51459743 58.85327148 14.49145508 C48.33289171 14.71795036 40.57224396 18.84843626 33 26 Z M26 32 C24.44792192 33.7935779 22.98227541 35.66247215 21.5625 37.5625 C20.78003906 38.59503906 19.99757813 39.62757813 19.19140625 40.69140625 C13.91690123 48.65487462 13.55460185 54.49109974 13.6875 63.9375 C13.68427734 65.07896484 13.68105469 66.22042969 13.67773438 67.39648438 C13.71719742 73.60653287 14.17027026 79.05884567 16 85 C18.85779017 83.70280076 20.91008536 82.3363174 23.11621094 80.11083984 C23.98666046 79.24016373 23.98666046 79.24016373 24.87469482 78.35189819 C25.48838928 77.72788116 26.10208374 77.10386414 26.734375 76.4609375 C27.37240051 75.82008209 28.01042603 75.17922668 28.66778564 74.51895142 C30.69994069 72.47562179 32.72502218 70.42544018 34.75 68.375 C36.1284453 66.9865214 37.50734636 65.5984951 38.88671875 64.2109375 C42.26311894 60.81251303 45.63319288 57.40792746 49 54 C47.67889577 51.96046559 47.67889577 51.96046559 46 50 C43.37374861 49.66574265 43.37374861 49.66574265 41 50 C40.7834375 48.96746094 40.566875 47.93492187 40.34375 46.87109375 C39.13609079 42.65172806 36.65310254 40.00783997 33.5 37.0625 C33.00113281 36.56943359 32.50226562 36.07636719 31.98828125 35.56835938 C29.44478764 32.82375597 29.44478764 32.82375597 26 32 Z " fill="#AEB3C3" transform="translate(30,194)"/>
<path d="M0 0 C0.165 1.155 0.33 2.31 0.5 3.5 C1.98349689 9.1232551 4.98284771 13.03634482 10 16 C13.55603712 16.50979616 16.97643057 16.56283525 20.56640625 16.59375 C26.00765909 17.23753873 29.24698189 20.19733879 33 24 C32.67 25.98 32.34 27.96 32 30 C33.5159375 29.7834375 33.5159375 29.7834375 35.0625 29.5625 C39.9730659 30.10811843 41.41531522 31.71671507 44.71484375 35.17578125 C46 37 46 37 46 40 C42.7 40.66 39.4 41.32 36 42 C38.19797403 44.19797403 39.17546145 44.45897517 42.125 45.125 C44.043125 45.558125 44.043125 45.558125 46 46 C46 47.65 46 49.3 46 51 C43.525 51.495 43.525 51.495 41 52 C41 53.32 41 54.64 41 56 C39.02 56.495 39.02 56.495 37 57 C35.00624891 54.00937337 34.10571418 51.39085683 33 48 C32.67 47.67 32.34 47.34 32 47 C31.34 49.97 30.68 52.94 30 56 C24.33333333 54.58333333 24.33333333 54.58333333 22 52 C21.65167679 49.24606963 21.81679089 46.79393891 22 44 C20.67935547 44.39251953 20.67935547 44.39251953 19.33203125 44.79296875 C16 45 16 45 13.26171875 43.05078125 C12.41222656 42.14714844 11.56273438 41.24351562 10.6875 40.3125 C9.82511719 39.42175781 8.96273437 38.53101563 8.07421875 37.61328125 C4.78639318 33.47099254 4.9330645 30.76799877 5.25 25.625 C5.27721493 21.53187485 5.14207371 20.23248425 2.9375 16.625 C-2.38906946 11.38363704 -2.38906946 11.38363704 -9 9 C-9.33 6.36 -9.66 3.72 -10 1 C-6.1496895 -1.56687367 -4.41430237 -0.83288724 0 0 Z " fill="#D9B7C3" transform="translate(96,250)"/>
<path d="M0 0 C2.71675995 0.36712972 4.61063713 0.72744599 6.875 2.3125 C8 4 8 4 7.84765625 5.703125 C6.63553584 8.98758031 4.61054647 11.63305452 2.5625 14.4375 C-3.47432107 22.72501581 -4.34100615 28.44281565 -4.3125 38.5625 C-4.32861328 39.67947266 -4.34472656 40.79644531 -4.36132812 41.94726562 C-4.36573348 49.54650622 -3.67954891 56.82677832 -1 64 C-0.34 64.33 0.32 64.66 1 65 C3.27516279 70.44786685 4.69446453 76.09705152 4 82 C2.8125 84.875 2.8125 84.875 1 87 C-1.5 88 -1.5 88 -4 88 C-5.6640625 86.81640625 -5.6640625 86.81640625 -7 85 C-7.1171875 82.65234375 -7.1171875 82.65234375 -6.875 79.9375 C-6.74444873 75.60092725 -7.19893931 72.97560284 -9.3125 69.1875 C-14.68527416 59.38829258 -15.27241427 49.20212222 -15.375 38.25 C-15.38893799 37.29198486 -15.40287598 36.33396973 -15.41723633 35.34692383 C-15.32240915 21.06496581 -9.47819053 10.38087534 0 0 Z " fill="#B9846A" transform="translate(49,219)"/>
<path d="M0 0 C3.95368753 1.3849075 7.53969662 1.30772117 11.68359375 1.046875 C12.71419922 1.00820312 12.71419922 1.00820312 13.765625 0.96875 C14.765625 1.96875 14.765625 1.96875 15.078125 4.84375 C14.765625 7.96875 14.765625 7.96875 13.328125 9.78125 C8.05842313 12.22330696 2.89546897 12.64849235 -2.609375 10.71875 C-4.7563694 9.85288395 -6.01188628 9.2267565 -7.53125 7.46484375 C-14.77148359 1.1047303 -32.22652816 2.21201815 -41.34375 2.48046875 C-50.93698833 3.13488835 -58.53848143 8.27285643 -65.234375 14.96875 C-68.07820623 13.6939291 -70.37191518 12.51737922 -72.234375 9.96875 C-71.97009567 7.35831744 -71.43284532 6.17974515 -69.625 4.2578125 C-48.30666393 -12.31447065 -23.61593806 -10.81847442 0 0 Z " fill="#BB8366" transform="translate(127.234375,207.03125)"/>
<path d="M0 0 C1.98 0 3.96 0 6 0 C7.63377165 4.56035392 8.72296253 9.12549661 9.625 13.875 C9.7590625 14.56335938 9.893125 15.25171875 10.03125 15.9609375 C10.35772223 17.63993755 10.67936553 19.31987536 11 21 C11.11593506 20.43490723 11.23187012 19.86981445 11.35131836 19.28759766 C11.87715296 16.73279309 12.40727295 14.1788964 12.9375 11.625 C13.11990234 10.73554688 13.30230469 9.84609375 13.49023438 8.9296875 C13.66748047 8.07890625 13.84472656 7.228125 14.02734375 6.3515625 C14.18968506 5.56604004 14.35202637 4.78051758 14.51928711 3.97119141 C15 2 15 2 16 0 C17.98 0 19.96 0 22 0 C22 10.89 22 21.78 22 33 C20.35 33 18.7 33 17 33 C16.67 29.37 16.34 25.74 16 22 C15.34 25.3 14.68 28.6 14 32 C11.525 32.495 11.525 32.495 9 33 C7.06418694 27.74565027 6.03831107 22.48821566 5 17 C4.67 22.28 4.34 27.56 4 33 C2.68 33 1.36 33 0 33 C0 22.11 0 11.22 0 0 Z " fill="#E86F22" transform="translate(202,227)"/>
<path d="M0 0 C0 0.66 0 1.32 0 2 C-1.99954746 2.04254356 -4.00041636 2.04080783 -6 2 C-6.495 1.505 -6.495 1.505 -7 1 C-12.75586539 -0.09269102 -18.40477766 -0.15063694 -24.25 -0.125 C-25.59578125 -0.13080078 -25.59578125 -0.13080078 -26.96875 -0.13671875 C-27.82984375 -0.13542969 -28.6909375 -0.13414062 -29.578125 -0.1328125 C-30.35575195 -0.13168457 -31.13337891 -0.13055664 -31.93457031 -0.12939453 C-34.19880171 -0.07611745 -34.19880171 -0.07611745 -37 1 C-38.21869929 3.50447516 -38.21869929 3.50447516 -39 6 C-38.1028125 5.91621094 -37.205625 5.83242187 -36.28125 5.74609375 C-27.99595847 5.0699181 -20.01874299 5.01089122 -11.734375 5.69921875 C-9.43620029 5.88432278 -7.1329715 6.02242315 -4.828125 6.08203125 C1.38888936 6.31388123 4.27376197 7.60719391 8.9609375 11.62890625 C13.44069334 14.64115586 18.96240939 14.28526269 24.125 13.5625 C25.053125 13.2840625 25.053125 13.2840625 26 13 C26 13.66 26 14.32 26 15 C21.14802856 17.74945048 16.27849378 17.06428167 11 16 C8.7155416 15.07443675 7.3003605 14.34568117 5.6796875 12.48046875 C-1.52737004 6.12820175 -19.02489841 7.24423232 -28.109375 7.51171875 C-37.70261333 8.16613835 -45.30410643 13.30410643 -52 20 C-54.84383123 18.7251791 -57.13754018 17.54862922 -59 15 C-58.73572067 12.38956744 -58.19847032 11.21099515 -56.390625 9.2890625 C-38.96820396 -4.25464436 -20.73856377 -5.60141272 0 0 Z " fill="#B5846B" transform="translate(114,202)"/>
<path d="M0 0 C1.65 0 3.3 0 5 0 C5.62958174 1.51894235 6.25340464 3.04027195 6.875 4.5625 C7.22304688 5.40941406 7.57109375 6.25632813 7.9296875 7.12890625 C9.13334763 10.35770257 10.05335056 13.68672696 11 17 C11.33 11.39 11.66 5.78 12 0 C13.32 0 14.64 0 16 0 C16 10.89 16 21.78 16 33 C14.35 33 12.7 33 11 33 C9.02 27.06 7.04 21.12 5 15 C4.67 20.94 4.34 26.88 4 33 C2.68 33 1.36 33 0 33 C0 22.11 0 11.22 0 0 Z " fill="#F0701F" transform="translate(284,227)"/>
<path d="M0 0 C10 0 10 0 14 2 C15.16968953 4.33937907 15.13364221 5.77369368 15.125 8.375 C15.12757813 9.14585937 15.13015625 9.91671875 15.1328125 10.7109375 C15 13 15 13 14.3671875 15.0390625 C13.88027155 17.63940088 14.80712431 18.68963482 16 21 C16.08203125 23.25390625 16.08203125 23.25390625 15.8125 25.5625 C15.73644531 26.32691406 15.66039062 27.09132812 15.58203125 27.87890625 C15 30 15 30 12 33 C8.04 33 4.08 33 0 33 C0 22.11 0 11.22 0 0 Z M4 5 C4 7.97 4 10.94 4 14 C5.65 14 7.3 14 9 14 C10.81301758 9.56906802 10.81301758 9.56906802 10 5 C8.02 5 6.04 5 4 5 Z M4 18 C4 21.63 4 25.26 4 29 C5.99954746 29.04254356 8.00041636 29.04080783 10 29 C11.89488952 27.10511048 11.18019112 24.42860854 11.23046875 21.91015625 C11.1702792 19.7587364 11.1702792 19.7587364 9 18 C7.35 18 5.7 18 4 18 Z " fill="#F46C18" transform="translate(310,227)"/>
<path d="M0 0 C3.56871381 0.50981626 5.03160265 0.93666429 7.5 3.5 C9.02093434 8.06280301 8.72539483 12.59544568 8.75 17.375 C8.770625 18.36886719 8.79125 19.36273438 8.8125 20.38671875 C8.86183281 29.59962116 8.86183281 29.59962116 5.5 33.5 C2.61138291 34.94430855 0.70352299 34.87688506 -2.5 34.5 C-5.1640625 32.7265625 -5.1640625 32.7265625 -7.5 29.5 C-8.22231717 25.48797031 -8.15225075 21.56546657 -8.0625 17.5 C-8.07345703 16.41976562 -8.08441406 15.33953125 -8.09570312 14.2265625 C-8.05248807 9.55933619 -8.00451842 6.39402833 -5.68359375 2.28125 C-3.5 0.5 -3.5 0.5 0 0 Z M-0.5 4.5 C-1.49 4.995 -1.49 4.995 -2.5 5.5 C-2.5867982 9.29152334 -2.64032207 13.08279296 -2.6875 16.875 C-2.71263672 17.95523438 -2.73777344 19.03546875 -2.76367188 20.1484375 C-2.77333984 21.1796875 -2.78300781 22.2109375 -2.79296875 23.2734375 C-2.8086792 24.22653809 -2.82438965 25.17963867 -2.84057617 26.16162109 C-2.72818604 26.93328613 -2.6157959 27.70495117 -2.5 28.5 C-1.015 29.49 -1.015 29.49 0.5 30.5 C1.49 29.84 2.48 29.18 3.5 28.5 C3.91609272 26.17699616 3.91609272 26.17699616 3.79296875 23.4921875 C3.7784668 22.01298828 3.7784668 22.01298828 3.76367188 20.50390625 C3.73853516 19.47136719 3.71339844 18.43882812 3.6875 17.375 C3.66719727 15.81458984 3.66719727 15.81458984 3.64648438 14.22265625 C3.61105228 11.64792373 3.56165221 9.0742167 3.5 6.5 C1.61683841 5.39163577 1.61683841 5.39163577 -0.5 4.5 Z " fill="#E17029" transform="translate(350.5,226.5)"/>
<path d="M0 0 C8.80171974 0.61358142 17.35954742 2.29549385 26 4 C26 5.32 26 6.64 26 8 C25.15695313 8.38671875 24.31390625 8.7734375 23.4453125 9.171875 C22.34960938 9.69265625 21.25390625 10.2134375 20.125 10.75 C19.03445312 11.26046875 17.94390625 11.7709375 16.8203125 12.296875 C13.82276037 14.10703113 13.17072959 14.81561552 12 18 C10.33333333 21.33333333 8.66666667 24.66666667 7 28 C6.01 27.67 5.02 27.34 4 27 C3.32603699 23.43884042 2.66212182 19.87587859 2 16.3125 C1.80921875 15.30509766 1.6184375 14.29769531 1.421875 13.25976562 C1.24140625 12.28330078 1.0609375 11.30683594 0.875 10.30078125 C0.70742188 9.40528564 0.53984375 8.50979004 0.3671875 7.5871582 C0.00282018 5.01987068 -0.06528807 2.58907987 0 0 Z " fill="#AFB5C8" transform="translate(30,194)"/>
<path d="M0 0 C5.34390244 0.76341463 5.34390244 0.76341463 7.5 3.5 C8.12606327 6.49237022 8.37206945 9.44885634 8.5 12.5 C6.85 12.5 5.2 12.5 3.5 12.5 C2.84 10.19 2.18 7.88 1.5 5.5 C0.18 5.5 -1.14 5.5 -2.5 5.5 C-2.17 13.09 -1.84 20.68 -1.5 28.5 C-0.84 28.83 -0.18 29.16 0.5 29.5 C1.16 29.17 1.82 28.84 2.5 28.5 C2.96651207 26.37423218 2.96651207 26.37423218 3.125 23.9375 C3.19976562 23.11121094 3.27453125 22.28492188 3.3515625 21.43359375 C3.40054687 20.79550781 3.44953125 20.15742188 3.5 19.5 C2.51 19.5 1.52 19.5 0.5 19.5 C0.5 18.18 0.5 16.86 0.5 15.5 C2.83294775 15.45758277 5.16702567 15.45907063 7.5 15.5 C9.12094818 17.12094818 8.70950959 18.89127885 8.75 21.125 C8.7078949 26.01620866 7.86168456 29.23080098 5.5 33.5 C2.61138291 34.94430855 0.70352299 34.87688506 -2.5 34.5 C-5.1640625 32.7265625 -5.1640625 32.7265625 -7.5 29.5 C-8.22231717 25.48797031 -8.15225075 21.56546657 -8.0625 17.5 C-8.07345703 16.41976562 -8.08441406 15.33953125 -8.09570312 14.2265625 C-8.05248807 9.55933619 -8.00451842 6.39402833 -5.68359375 2.28125 C-3.5 0.5 -3.5 0.5 0 0 Z " fill="#DC702D" transform="translate(368.5,226.5)"/>
<path d="M0 0 C3.23555567 0.55785443 5.06056702 1.29199915 7 4 C7.29296875 6.48046875 7.29296875 6.48046875 7.1875 9.1875 C7.16042969 10.08855469 7.13335937 10.98960937 7.10546875 11.91796875 C7.07066406 12.60503906 7.03585938 13.29210937 7 14 C10.27773504 13.24849977 10.27773504 13.24849977 12 10 C13.99519581 11.72400414 15.98234683 13.45561667 17.95703125 15.203125 C19.42698553 16.49601022 20.92410787 17.75824236 22.4375 19 C25.50828706 22.93060744 25.09132976 27.17803218 24.5625 31.9375 C24.376875 32.948125 24.19125 33.95875 24 35 C20.62422258 34.3971826 18.32538393 33.57453221 16 31 C15.65167679 28.24606963 15.81679089 25.79393891 16 23 C14.67935547 23.39251953 14.67935547 23.39251953 13.33203125 23.79296875 C10 24 10 24 7.26171875 22.05078125 C6.41222656 21.14714844 5.56273438 20.24351562 4.6875 19.3125 C3.82511719 18.42175781 2.96273437 17.53101563 2.07421875 16.61328125 C-0.57248602 13.27873231 -1.07525226 11.60214482 -0.87890625 7.421875 C-0.77449219 6.54015625 -0.67007813 5.6584375 -0.5625 4.75 C-0.46066406 3.85796875 -0.35882813 2.9659375 -0.25390625 2.046875 C-0.17011719 1.37140625 -0.08632812 0.6959375 0 0 Z " fill="#D6362E" transform="translate(102,271)"/>
<path d="M0 0 C1.32 0 2.64 0 4 0 C4 4.95 4 9.9 4 15 C6.31 15 8.62 15 11 15 C11 10.05 11 5.1 11 0 C12.65 0 14.3 0 16 0 C16 10.89 16 21.78 16 33 C14.35 33 12.7 33 11 33 C11 28.38 11 23.76 11 19 C8.69 19 6.38 19 4 19 C4 23.62 4 28.24 4 33 C2.68 33 1.36 33 0 33 C0 22.11 0 11.22 0 0 Z " fill="#F56C16" transform="translate(160,227)"/>
<path d="M0 0 C1.32 0 2.64 0 4 0 C4 4.95 4 9.9 4 15 C6.31 15 8.62 15 11 15 C11 10.05 11 5.1 11 0 C12.65 0 14.3 0 16 0 C16 10.89 16 21.78 16 33 C14.35 33 12.7 33 11 33 C11 28.38 11 23.76 11 19 C8.69 19 6.38 19 4 19 C4 23.62 4 28.24 4 33 C2.68 33 1.36 33 0 33 C0 22.11 0 11.22 0 0 Z " fill="#EC6F1F" transform="translate(246,227)"/>
<path d="M0 0 C6.99441179 0 10.65398744 2.70293706 15.5 7.5 C15.17 9.48 14.84 11.46 14.5 13.5 C16.0159375 13.2834375 16.0159375 13.2834375 17.5625 13.0625 C22.4730659 13.60811843 23.91531522 15.21671507 27.21484375 18.67578125 C28.5 20.5 28.5 20.5 28.5 23.5 C26.5625 24 26.5625 24 23.5 24.5 C22.46552734 24.67208984 22.46552734 24.67208984 21.41015625 24.84765625 C17.71682185 25.19489282 15.44885284 25.2817359 12.50390625 22.85546875 C10.7313788 20.80086166 9.11280123 18.68104208 7.5 16.5 C6.695625 15.71625 5.89125 14.9325 5.0625 14.125 C3.5 12.5 3.5 12.5 3.5 10.5 C4.49 10.17 5.48 9.84 6.5 9.5 C6.5 8.84 6.5 8.18 6.5 7.5 C5.89671875 7.48582031 5.2934375 7.47164063 4.671875 7.45703125 C-1.9373928 7.0626072 -1.9373928 7.0626072 -5.0625 3.9375 C-5.7740625 2.7309375 -5.7740625 2.7309375 -6.5 1.5 C-4.73439678 -0.26560322 -2.40291906 0.12135955 0 0 Z " fill="#C64B46" transform="translate(113.5,266.5)"/>
<path d="M0 0 C1.98 0 3.96 0 6 0 C6.81964269 3.81099982 7.6293935 7.62403875 8.4375 11.4375 C8.66759766 12.50677734 8.89769531 13.57605469 9.13476562 14.67773438 C10.42336602 20.78457974 11.43132718 26.78381775 12 33 C10.35 33 8.7 33 7 33 C6.67 31.35 6.34 29.7 6 28 C3.69 27.67 1.38 27.34 -1 27 C-1.33 28.98 -1.66 30.96 -2 33 C-3.32 33 -4.64 33 -6 33 C-5.41493301 25.90221367 -4.36762702 18.98679024 -3 12 C-2.82210938 11.06027344 -2.64421875 10.12054688 -2.4609375 9.15234375 C-1.13334309 2.26668618 -1.13334309 2.26668618 0 0 Z M2 9 C1.66179834 10.5823006 1.32964061 12.16589375 1 13.75 C0.814375 14.63171875 0.62875 15.5134375 0.4375 16.421875 C-0.11153675 19.22143965 -0.11153675 19.22143965 0 23 C1.98 23 3.96 23 6 23 C5.01 18.38 4.02 13.76 3 9 C2.67 9 2.34 9 2 9 Z " fill="#EC6F20" transform="translate(270,227)"/>
<path d="M0 0 C1.4540625 0.0309375 1.4540625 0.0309375 2.9375 0.0625 C3.79569332 4.27928764 4.65008788 8.49682173 5.50097656 12.71508789 C5.79094935 14.14986936 6.0819576 15.58444196 6.37402344 17.01879883 C6.79374487 19.08100157 7.20973205 21.14392771 7.625 23.20703125 C7.87636719 24.44815674 8.12773437 25.68928223 8.38671875 26.96801758 C8.9375 30.0625 8.9375 30.0625 8.9375 33.0625 C7.2875 33.0625 5.6375 33.0625 3.9375 33.0625 C3.6075 31.0825 3.2775 29.1025 2.9375 27.0625 C0.6275 27.0625 -1.6825 27.0625 -4.0625 27.0625 C-4.3925 29.0425 -4.7225 31.0225 -5.0625 33.0625 C-6.7125 33.0625 -8.3625 33.0625 -10.0625 33.0625 C-9.23130177 28.52258709 -8.39502368 23.98365135 -7.55395508 19.44555664 C-7.26836408 17.90056946 -6.9841804 16.35532146 -6.70141602 14.80981445 C-6.29550096 12.59256565 -5.8845879 10.37629408 -5.47265625 8.16015625 C-5.34657486 7.4653566 -5.22049347 6.77055695 -5.09059143 6.05470276 C-3.97110249 0.08104291 -3.97110249 0.08104291 0 0 Z M-1.0625 8.0625 C-1.40201619 9.62366819 -1.73382544 11.18651338 -2.0625 12.75 C-2.248125 13.62011719 -2.43375 14.49023438 -2.625 15.38671875 C-3.05222047 17.99962964 -3.13866201 20.42063038 -3.0625 23.0625 C-1.4125 23.0625 0.2375 23.0625 1.9375 23.0625 C1.28400367 15.51211578 1.28400367 15.51211578 -0.0625 8.0625 C-0.3925 8.0625 -0.7225 8.0625 -1.0625 8.0625 Z " fill="#EF6D1B" transform="translate(235.0625,226.9375)"/>
<path d="M0 0 C0.7425 0.763125 1.485 1.52625 2.25 2.3125 C4.81255089 4.9607804 4.81255089 4.9607804 7.3125 6.625 C7.869375 7.07875 8.42625 7.5325 9 8 C9 8.99 9 9.98 9 11 C9.99 11.33 10.98 11.66 12 12 C12.33 12.66 12.66 13.32 13 14 C13.60972656 14.29132813 14.21945313 14.58265625 14.84765625 14.8828125 C17.3792606 16.19685759 18.63932207 17.67399699 20.4375 19.875 C23.07588711 22.97566861 25.55416591 25.76486437 29 28 C30.32 28 31.64 28 33 28 C33.1546875 29.5778125 33.1546875 29.5778125 33.3125 31.1875 C33.97733415 34.87430754 34.88566296 36.96638599 37 40 C35.58297487 39.85769192 34.1663904 39.71099254 32.75 39.5625 C31.96109375 39.48128906 31.1721875 39.40007812 30.359375 39.31640625 C28.17635361 39.02365007 26.1226818 38.57935581 24 38 C23.78214844 36.96101563 23.56429687 35.92203125 23.33984375 34.8515625 C22.15123513 30.69718198 19.72214571 28.20920633 16.5625 25.375 C13.07449349 22.16658403 10.39905344 19.11266305 8 15 C6.03852126 13.61061923 4.03833424 12.2739589 2 11 C0.125 9.375 0.125 9.375 -1 8 C-1 7.34 -1 6.68 -1 6 C-1.66 6 -2.32 6 -3 6 C-2.625 3.5625 -2.625 3.5625 -2 1 C-1.34 0.67 -0.68 0.34 0 0 Z " fill="#C2C8D6" transform="translate(46,206)"/>
<path d="M0 0 C4.62 0 9.24 0 14 0 C13.67 1.65 13.34 3.3 13 5 C10.03 5 7.06 5 4 5 C4 8.3 4 11.6 4 15 C6.64 15 9.28 15 12 15 C12 16.32 12 17.64 12 19 C9.36 19 6.72 19 4 19 C4 22.3 4 25.6 4 29 C7.3 29 10.6 29 14 29 C14 30.32 14 31.64 14 33 C9.38 33 4.76 33 0 33 C0 22.11 0 11.22 0 0 Z " fill="#E67229" transform="translate(179,227)"/>
<path d="M0 0 C5.28 0 10.56 0 16 0 C16 1.65 16 3.3 16 5 C14.02 5 12.04 5 10 5 C10 14.24 10 23.48 10 33 C8.68 33 7.36 33 6 33 C6 23.76 6 14.52 6 5 C4.02 5 2.04 5 0 5 C0 3.35 0 1.7 0 0 Z " fill="#EC6F21" transform="translate(142,227)"/>
<path d="M0 0 C1.32 0 2.64 0 4 0 C4 9.57 4 19.14 4 29 C7.3 29 10.6 29 14 29 C14 30.32 14 31.64 14 33 C9.38 33 4.76 33 0 33 C0 22.11 0 11.22 0 0 Z " fill="#E3722A" transform="translate(328,227)"/>
<path d="M0 0 C0.185625 1.175625 0.37125 2.35125 0.5625 3.5625 C1.65876804 8.15058478 3.99675342 10.38094369 7.5390625 13.359375 C9 15 9 15 9 19 C6.75 19.3125 6.75 19.3125 4 19 C2.61096733 17.37946188 1.28667172 15.70294787 0 14 C-4.04301304 10.38538733 -4.04301304 10.38538733 -9 9 C-9.33 6.36 -9.66 3.72 -10 1 C-6.1496895 -1.56687367 -4.41430237 -0.83288724 0 0 Z " fill="#C8CFDF" transform="translate(96,250)"/>
<path d="M0 0 C2.93909054 0.43542082 4.15136608 1.12487702 6.5 3.0625 C8.99979416 5.40838111 8.99979416 5.40838111 13 5 C13.103125 6.051875 13.20625 7.10375 13.3125 8.1875 C13.97733415 11.87430754 14.88566296 13.96638599 17 17 C15.58297487 16.85769192 14.1663904 16.71099254 12.75 16.5625 C11.56664063 16.44068359 11.56664063 16.44068359 10.359375 16.31640625 C8.17635361 16.02365007 6.1226818 15.57935581 4 15 C3.731875 13.948125 3.46375 12.89625 3.1875 11.8125 C2.18816414 8.0538257 2.18816414 8.0538257 0.3125 5.25 C-0.120625 4.5075 -0.55375 3.765 -1 3 C-0.67 2.01 -0.34 1.02 0 0 Z " fill="#C5CDDC" transform="translate(66,229)"/>
<path d="M0 0 C3.625 0.3125 3.625 0.3125 6 1.25 C8.58527033 4.53130464 8.45418456 8.23855169 8.625 12.3125 C6.975 12.3125 5.325 12.3125 3.625 12.3125 C2.965 10.0025 2.305 7.6925 1.625 5.3125 C0.305 5.6425 -1.015 5.9725 -2.375 6.3125 C-2.705 14.2325 -3.035 22.1525 -3.375 30.3125 C-4.035 30.3125 -4.695 30.3125 -5.375 30.3125 C-5.42439662 26.36153022 -5.46071755 22.4106797 -5.48486328 18.45947266 C-5.49988107 16.4533864 -5.52528981 14.44738676 -5.55078125 12.44140625 C-5.56044922 10.55615234 -5.56044922 10.55615234 -5.5703125 8.6328125 C-5.58078613 7.47023926 -5.59125977 6.30766602 -5.60205078 5.10986328 C-5.25633515 0.85049798 -4.18092314 0.38712251 0 0 Z " fill="#F66B14" transform="translate(368.375,226.6875)"/>
<path d="M0 0 C2.25446603 0.38870104 3.83724686 0.89234369 5.75390625 2.16015625 C8.09331022 5.61426055 6.97449009 9.8670738 6.71484375 13.87109375 C6.72757144 17.07664442 6.72757144 17.07664442 8.80078125 19.36328125 C11.51209302 21.38111363 13.67002896 21.69727536 17 22 C17 24.64 17 27.28 17 30 C16.67 30 16.34 30 16 30 C16 27.69 16 25.38 16 23 C14.67935547 23.39251953 14.67935547 23.39251953 13.33203125 23.79296875 C10 24 10 24 7.26171875 22.05078125 C6.41222656 21.14714844 5.56273438 20.24351562 4.6875 19.3125 C3.82511719 18.42175781 2.96273437 17.53101563 2.07421875 16.61328125 C-0.57248602 13.27873231 -1.07525226 11.60214482 -0.87890625 7.421875 C-0.77449219 6.54015625 -0.67007813 5.6584375 -0.5625 4.75 C-0.46066406 3.85796875 -0.35882813 2.9659375 -0.25390625 2.046875 C-0.17011719 1.37140625 -0.08632812 0.6959375 0 0 Z " fill="#C44848" transform="translate(102,271)"/>
<path d="M0 0 C2.12570312 0.47603774 4.25054427 0.95592598 6.375 1.4375 C8.15003906 1.83775391 8.15003906 1.83775391 9.9609375 2.24609375 C13 3 13 3 15 4 C15 5.65 15 7.3 15 9 C13.35 9.33 11.7 9.66 10 10 C10 11.32 10 12.64 10 14 C8.68 14.33 7.36 14.66 6 15 C4 12 4 12 3 8.9375 C2.21378109 5.91944266 2.21378109 5.91944266 0 4 C0 2.68 0 1.36 0 0 Z " fill="#C2C9D8" transform="translate(127,292)"/>
<path d="M0 0 C6.625 -0.25 6.625 -0.25 10 2 C11.61803212 6.76992129 11.18392388 12.13988648 11.1875 17.125 C11.19974609 18.03121094 11.21199219 18.93742187 11.22460938 19.87109375 C11.22750977 21.17626953 11.22750977 21.17626953 11.23046875 22.5078125 C11.23457764 23.29816895 11.23868652 24.08852539 11.24291992 24.90283203 C11 27 11 27 9 30 C8 29 8 29 7.88647461 26.68334961 C7.89171143 25.68311768 7.89694824 24.68288574 7.90234375 23.65234375 C7.90556641 22.57275391 7.90878906 21.49316406 7.91210938 20.38085938 C7.92048828 19.24455078 7.92886719 18.10824219 7.9375 16.9375 C7.94201172 15.79732422 7.94652344 14.65714844 7.95117188 13.48242188 C7.96300253 10.65489649 7.9794859 7.8274736 8 5 C5.36 5 2.72 5 0 5 C-0.33 5.99 -0.66 6.98 -1 8 C-1.93065133 5.39417629 -2.14917407 4.35801776 -1.0625 1.75 C-0.711875 1.1725 -0.36125 0.595 0 0 Z " fill="#EE6E1E" transform="translate(347,227)"/>
<path d="M0 0 C2.64 0 5.28 0 8 0 C8 0.66 8 1.32 8 2 C6.35 2.33 4.7 2.66 3 3 C2.67 6.3 2.34 9.6 2 13 C5.3 13 8.6 13 12 13 C12 14.32 12 15.64 12 17 C7.38 17 2.76 17 -2 17 C-2.16973678 10.80460742 -2.035282 5.85143575 0 0 Z " fill="#E67228" transform="translate(181,243)"/>
<path d="M0 0 C0.66 0.33 1.32 0.66 2 1 C1.979375 1.763125 1.95875 2.52625 1.9375 3.3125 C1.87057159 6.10185786 1.87057159 6.10185786 3 9 C4.65 8.34 6.3 7.68 8 7 C9 10.875 9 10.875 9 12 C9.32380126 13.33568021 9.65657551 14.66923011 10 16 C9.01 16.33 8.02 16.66 7 17 C8.12697043 21.96911366 8.12697043 21.96911366 11 26 C9.68 26 8.36 26 7 26 C6.79375 24.906875 6.5875 23.81375 6.375 22.6875 C5.37086779 18.77050107 5.37086779 18.77050107 1.9375 17.3125 C0.4834375 16.6628125 0.4834375 16.6628125 -1 16 C-1.8125 13.9375 -1.8125 13.9375 -2 12 C-2.33 11.34 -2.66 10.68 -3 10 C-0.03 10.495 -0.03 10.495 3 11 C2.319375 10.113125 1.63875 9.22625 0.9375 8.3125 C-1 5 -1 5 -0.75 2.125 C-0.5025 1.42375 -0.255 0.7225 0 0 Z " fill="#BDC4DA" transform="translate(79,234)"/>
<path d="M0 0 C0.99 0.33 1.98 0.66 3 1 C5.46167061 6.28803316 6.68140656 12.20804421 6 18 C4.8125 20.875 4.8125 20.875 3 23 C0.5 24 0.5 24 -2 24 C-3.875 22.9375 -3.875 22.9375 -5 21 C-4.6875 17.8125 -4.6875 17.8125 -4 15 C-3.01 14.67 -2.02 14.34 -1 14 C-0.01 14.66 0.98 15.32 2 16 C2.20413361 10.26157749 2.27141454 5.39460953 0 0 Z " fill="#B78E79" transform="translate(47,283)"/>
<path d="M0 0 C1.32 0 2.64 0 4 0 C4 10.89 4 21.78 4 33 C2.35 33 0.7 33 -1 33 C-1.696553 31.04486839 -2.38199565 29.08577524 -3.0625 27.125 C-3.63677734 25.48917969 -3.63677734 25.48917969 -4.22265625 23.8203125 C-5 21 -5 21 -4 19 C-3.67 20.32 -3.34 21.64 -3 23 C-2.01 23 -1.02 23 0 23 C0 23.66 0 24.32 0 25 C0.66 25 1.32 25 2 25 C2 25.66 2 26.32 2 27 C1.34 27 0.68 27 0 27 C0.33 28.65 0.66 30.3 1 32 C1.66 32 2.32 32 3 32 C3 22.1 3 12.2 3 2 C2.34 2 1.68 2 1 2 C1 8.27 1 14.54 1 21 C0.01 21 -0.98 21 -2 21 C-2.33 18.69 -2.66 16.38 -3 14 C-2.01 15.485 -2.01 15.485 -1 17 C-0.67 11.39 -0.34 5.78 0 0 Z " fill="#E5752B" transform="translate(296,227)"/>
<path d="M0 0 C0 0.66 0 1.32 0 2 C-1.99954746 2.04254356 -4.00041636 2.04080783 -6 2 C-6.495 1.505 -6.495 1.505 -7 1 C-20.96890612 -1.49969899 -33.61919546 -1.51671766 -46.12890625 5.56640625 C-49 7 -49 7 -52 6 C-49.41909233 4.68253667 -46.83549542 3.37090383 -44.25 2.0625 C-43.52039063 1.68931641 -42.79078125 1.31613281 -42.0390625 0.93164062 C-41.33007812 0.57392578 -40.62109375 0.21621094 -39.890625 -0.15234375 C-38.91657715 -0.6472229 -38.91657715 -0.6472229 -37.92285156 -1.15209961 C-26.7085115 -6.09717364 -11.32999759 -3.06019228 0 0 Z " fill="#B6907E" transform="translate(114,202)"/>
<path d="M0 0 C10 0 10 0 14 2 C15.17673198 4.35346396 15.16623866 5.8806033 15.1875 8.5 C15.20167969 9.2940625 15.21585937 10.088125 15.23046875 10.90625 C15 13 15 13 13 15 C13.02320313 14.39671875 13.04640625 13.7934375 13.0703125 13.171875 C13.08835937 12.37265625 13.10640625 11.5734375 13.125 10.75 C13.14820313 9.96109375 13.17140625 9.1721875 13.1953125 8.359375 C13.11496763 5.61010274 13.11496763 5.61010274 11 2 C7.7 2 4.4 2 1 2 C1 11.9 1 21.8 1 32 C4.63 32 8.26 32 12 32 C12 32.33 12 32.66 12 33 C8.04 33 4.08 33 0 33 C0 22.11 0 11.22 0 0 Z M4 4 C6.31 4 8.62 4 11 4 C10.67 5.32 10.34 6.64 10 8 C10 7.01 10 6.02 10 5 C8.02 5 6.04 5 4 5 C4 4.67 4 4.34 4 4 Z " fill="#E0722A" transform="translate(310,227)"/>
<path d="M0 0 C0.66 0 1.32 0 2 0 C2.04254356 1.99954746 2.04080783 4.00041636 2 6 C1.67 6.33 1.34 6.66 1 7 C0.11889198 18.53984497 0.09120008 30.54897804 3.34375 41.70703125 C4 44 4 44 4 47 C3.34 47 2.68 47 2 47 C1.51698797 45.29274992 1.03878042 43.58414026 0.5625 41.875 C0.29566406 40.92367187 0.02882812 39.97234375 -0.24609375 38.9921875 C-1.97591801 32.1266674 -2.18302464 25.61119587 -2.1875 18.5625 C-2.19974609 17.55123047 -2.21199219 16.53996094 -2.22460938 15.49804688 C-2.23551195 9.92683038 -1.8714708 5.25935075 0 0 Z " fill="#BC937F" transform="translate(36,239)"/>
<path d="M0 0 C0.66 0 1.32 0 2 0 C2 9.9 2 19.8 2 30 C1.34 30 0.68 30 0 30 C-0.33 28.35 -0.66 26.7 -1 25 C-0.34 25 0.32 25 1 25 C1 24.34 1 23.68 1 23 C0.34 23 -0.32 23 -1 23 C-1 22.34 -1 21.68 -1 21 C-1.99 21 -2.98 21 -4 21 C-6.09350689 17.5980513 -6.17942163 14.94727588 -6 11 C-5.01 11.33 -4.02 11.66 -3 12 C-3 14.31 -3 16.62 -3 19 C-2.01 19 -1.02 19 0 19 C0 12.73 0 6.46 0 0 Z " fill="#F66E15" transform="translate(297,229)"/>
<path d="M0 0 C1.65 0 3.3 0 5 0 C5.67305018 1.60149886 6.33822227 3.20631029 7 4.8125 C7.37125 5.70582031 7.7425 6.59914062 8.125 7.51953125 C9 10 9 10 9 13 C8.34 13 7.68 13 7 13 C7 14.65 7 16.3 7 18 C5.20931427 15.3139714 4.33944209 13.3373411 3.375 10.3125 C3.11460937 9.50425781 2.85421875 8.69601563 2.5859375 7.86328125 C2.29589844 6.94095703 2.29589844 6.94095703 2 6 C2.99 6 3.98 6 5 6 C5 4.68 5 3.36 5 2 C3.68 2 2.36 2 1 2 C1.08378906 3.12277344 1.16757812 4.24554688 1.25390625 5.40234375 C1.78905966 13.07515928 2.24902928 20.36704328 1 28 C0.67 28 0.34 28 0 28 C0 18.76 0 9.52 0 0 Z " fill="#E1742F" transform="translate(284,227)"/>
<path d="M0 0 C0.66 0 1.32 0 2 0 C2 9.24 2 18.48 2 28 C5.3 28 8.6 28 12 28 C12 28.66 12 29.32 12 30 C8.04 30 4.08 30 0 30 C0 20.1 0 10.2 0 0 Z " fill="#F86B12" transform="translate(329,229)"/>
<path d="M0 0 C1.65 0 3.3 0 5 0 C5 10.89 5 21.78 5 33 C3.35 33 1.7 33 0 33 C0 28.38 0 23.76 0 19 C0.33 19 0.66 19 1 19 C1 23.29 1 27.58 1 32 C1.99 32 2.98 32 4 32 C4 22.1 4 12.2 4 2 C3.34 2 2.68 2 2 2 C2 5.63 2 9.26 2 13 C1.34 13 0.68 13 0 13 C0 8.71 0 4.42 0 0 Z " fill="#D97230" transform="translate(171,227)"/>
<path d="M0 0 C1.32 0 2.64 0 4 0 C4 4.29 4 8.58 4 13 C3.67 13 3.34 13 3 13 C2.67 11.35 2.34 9.7 2 8 C1.67 15.92 1.34 23.84 1 32 C1.66 32 2.32 32 3 32 C3 27.71 3 23.42 3 19 C3.33 19 3.66 19 4 19 C4 23.62 4 28.24 4 33 C2.68 33 1.36 33 0 33 C0 22.11 0 11.22 0 0 Z " fill="#E87126" transform="translate(160,227)"/>
<path d="M0 0 C2.96571002 4.44856503 2.32933637 8.64225615 2.3125 13.875 C2.32861328 14.86886719 2.34472656 15.86273438 2.36132812 16.88671875 C2.36748398 26.08355878 2.36748398 26.08355878 -1 30 C-3.70879335 31.35439668 -6.00933268 31.06501451 -9 31 C-9 30.67 -9 30.34 -9 30 C-7.02 29.34 -5.04 28.68 -3 28 C-3.66 27.34 -4.32 26.68 -5 26 C-4.67 25.67 -4.34 25.34 -4 25 C-3.91286169 23.29227642 -3.89299993 21.58101351 -3.90234375 19.87109375 C-3.90556641 18.83662109 -3.90878906 17.80214844 -3.91210938 16.73632812 C-3.92048828 15.64771484 -3.92886719 14.55910156 -3.9375 13.4375 C-3.94201172 12.34501953 -3.94652344 11.25253906 -3.95117188 10.12695312 C-3.96300174 7.41791505 -3.97948457 4.70898401 -4 2 C-3.34 2 -2.68 2 -2 2 C-1.67 9.92 -1.34 17.84 -1 26 C0.30475618 23.39048764 0.11301572 21.47298715 0.09765625 18.5546875 C0.09443359 17.47832031 0.09121094 16.40195313 0.08789062 15.29296875 C0.07532227 13.60107422 0.07532227 13.60107422 0.0625 11.875 C0.05798828 10.73933594 0.05347656 9.60367188 0.04882812 8.43359375 C0.03701615 5.62234362 0.02054507 2.8111977 0 0 Z " fill="#D97839" transform="translate(357,230)"/>
<path d="M0 0 C1.32 0 2.64 0 4 0 C4 0.99 4 1.98 4 3 C5.98 2.67 7.96 2.34 10 2 C10.33 3.98 10.66 5.96 11 8 C11.99 8.33 12.98 8.66 14 9 C13.34 10.98 12.68 12.96 12 15 C10.68 14.67 9.36 14.34 8 14 C8.33 11.36 8.66 8.72 9 6 C7.6078125 6.061875 7.6078125 6.061875 6.1875 6.125 C3 6 3 6 0 4 C0 2.68 0 1.36 0 0 Z " fill="#DE362E" transform="translate(110,287)"/>
<path d="M0 0 C1.32 0 2.64 0 4 0 C4 4.29 4 8.58 4 13 C3.67 13 3.34 13 3 13 C3 9.7 3 6.4 3 3 C2.34 3 1.68 3 1 3 C1 12.57 1 22.14 1 32 C1.66 32 2.32 32 3 32 C3 27.38 3 22.76 3 18 C3.66 18.33 4.32 18.66 5 19 C4.67 23.62 4.34 28.24 4 33 C2.68 33 1.36 33 0 33 C0 22.11 0 11.22 0 0 Z " fill="#E9752B" transform="translate(246,227)"/>
<path d="M0 0 C8.76857945 -0.91942386 8.76857945 -0.91942386 11.7421875 1.30078125 C13.0625 2.9375 13.0625 2.9375 15 6 C15.33 6.33 15.66 6.66 16 7 C16 8.32 16 9.64 16 11 C14.35 11 12.7 11 11 11 C10.34 8.36 9.68 5.72 9 3 C6.36 3 3.72 3 1 3 C0.67 2.01 0.34 1.02 0 0 Z " fill="#DC332F" transform="translate(111,269)"/>
<path d="M0 0 C3.63 0 7.26 0 11 0 C11.66 1.32 12.32 2.64 13 4 C11.02 4.66 9.04 5.32 7 6 C7.33 6.66 7.66 7.32 8 8 C5.03 7.505 5.03 7.505 2 7 C1.34 4.69 0.68 2.38 0 0 Z " fill="#D93733" transform="translate(124,281)"/>
<path d="M0 0 C3.41985629 2.19221557 4.81949737 3.31666861 5.875 7.3125 C6.00075969 11.02241076 5.66961477 14.3543196 5 18 C3.125 17.75 3.125 17.75 1 17 C-0.25 14.9375 -0.25 14.9375 -1 13 C-0.34 13 0.32 13 1 13 C1.66 10.69 2.32 8.38 3 6 C2.34 6 1.68 6 1 6 C0.67 4.02 0.34 2.04 0 0 Z " fill="#D3423E" transform="translate(121,288)"/>
<path d="M0 0 C3.09167049 -0.21079572 5.42018118 -0.23506168 8.3125 0.9375 C10.98157975 4.19970859 10.82788884 7.89514876 11 12 C9.35 12 7.7 12 6 12 C5.34 9.36 4.68 6.72 4 4 C4.66 3.67 5.32 3.34 6 3 C4.02 2.34 2.04 1.68 0 1 C0 0.67 0 0.34 0 0 Z " fill="#EB6F23" transform="translate(366,227)"/>
<path d="M0 0 C2 2 2 2 2 5 C2.99 5 3.98 5 5 5 C5 8.3 5 11.6 5 15 C3.68 15 2.36 15 1 15 C0.67 10.05 0.34 5.1 0 0 Z " fill="#F76D15" transform="translate(210,245)"/>
<path d="M0 0 C0.33 0 0.66 0 1 0 C1.33 2.97 1.66 5.94 2 9 C3.98 9 5.96 9 8 9 C8 9.33 8 9.66 8 10 C6.35 10 4.7 10 3 10 C2.67 11.98 2.34 13.96 2 16 C0.35 16 -1.3 16 -3 16 C-2.01 10.72 -1.02 5.44 0 0 Z " fill="#E57123" transform="translate(228,244)"/>
<path d="M0 0 C0.66 0.33 1.32 0.66 2 1 C1.979375 1.763125 1.95875 2.52625 1.9375 3.3125 C1.87057159 6.10185786 1.87057159 6.10185786 3 9 C4.65 8.34 6.3 7.68 8 7 C9 10.875 9 10.875 9 12 C9.32380126 13.33568021 9.65657551 14.66923011 10 16 C8.68 15.34 7.36 14.68 6 14 C6 13.34 6 12.68 6 12 C5.401875 11.79375 4.80375 11.5875 4.1875 11.375 C1.11052068 9.44089871 0.27436027 7.35357965 -1 4 C-0.6875 1.625 -0.6875 1.625 0 0 Z " fill="#B3B9D2" transform="translate(79,234)"/>
<path d="M0 0 C0.39832031 0.51175781 0.79664063 1.02351562 1.20703125 1.55078125 C0.87703125 2.21078125 0.54703125 2.87078125 0.20703125 3.55078125 C-0.45296875 3.22078125 -1.11296875 2.89078125 -1.79296875 2.55078125 C-1.79296875 5.19078125 -1.79296875 7.83078125 -1.79296875 10.55078125 C-2.12296875 10.55078125 -2.45296875 10.55078125 -2.79296875 10.55078125 C-3.12296875 8.24078125 -3.45296875 5.93078125 -3.79296875 3.55078125 C-5.77296875 2.89078125 -7.75296875 2.23078125 -9.79296875 1.55078125 C-9.79296875 4.19078125 -9.79296875 6.83078125 -9.79296875 9.55078125 C-10.12296875 9.55078125 -10.45296875 9.55078125 -10.79296875 9.55078125 C-10.79296875 6.58078125 -10.79296875 3.61078125 -10.79296875 0.55078125 C-2.2343149 -1.80594952 -2.2343149 -1.80594952 0 0 Z " fill="#E37329" transform="translate(323.79296875,243.44921875)"/>
<path d="M0 0 C1.32 0 2.64 0 4 0 C4 1.32 4 2.64 4 4 C3.01 4.495 3.01 4.495 2 5 C2.185625 5.86625 2.37125 6.7325 2.5625 7.625 C3.00667933 11.05152628 2.71954492 13.64212371 2 17 C1.34 16.67 0.68 16.34 0 16 C0 10.72 0 5.44 0 0 Z " fill="#F46C15" transform="translate(285,229)"/>
<path d="M0 0 C2.64 0 5.28 0 8 0 C8 0.66 8 1.32 8 2 C7.01 2 6.02 2 5 2 C5.33 3.65 5.66 5.3 6 7 C4.02 7 2.04 7 0 7 C0 4.69 0 2.38 0 0 Z " fill="#D7C8DA" transform="translate(111,274)"/>
<path d="M0 0 C2.97 0.495 2.97 0.495 6 1 C6.33 2.98 6.66 4.96 7 7 C6.34 7 5.68 7 5 7 C5 8.65 5 10.3 5 12 C3.20931427 9.3139714 2.33944209 7.3373411 1.375 4.3125 C1.11460937 3.50425781 0.85421875 2.69601563 0.5859375 1.86328125 C0.39257812 1.24839844 0.19921875 0.63351563 0 0 Z " fill="#EB7122" transform="translate(286,233)"/>
<path d="M0 0 C4.62 0 9.24 0 14 0 C13.67 1.65 13.34 3.3 13 5 C10.36 5 7.72 5 5 5 C5 4.67 5 4.34 5 4 C7.31 4 9.62 4 12 4 C12 3.34 12 2.68 12 2 C8.04 2 4.08 2 0 2 C0 1.34 0 0.68 0 0 Z " fill="#D67332" transform="translate(179,227)"/>
<path d="M0 0 C1.32 0 2.64 0 4 0 C4 3.3 4 6.6 4 10 C2.68 9.67 1.36 9.34 0 9 C0 6.03 0 3.06 0 0 Z " fill="#D9362F" transform="translate(103,275)"/>
<path d="M0 0 C0.33 0 0.66 0 1 0 C1.33820166 1.5823006 1.67035939 3.16589375 2 4.75 C2.185625 5.63171875 2.37125 6.5134375 2.5625 7.421875 C3 10 3 10 3 14 C1.35 14 -0.3 14 -2 14 C-2.042721 12.33388095 -2.04063832 10.66617115 -2 9 C-1.67 8.67 -1.34 8.34 -1 8 C-0.76924918 6.65252916 -0.58846937 5.29622435 -0.4375 3.9375 C-0.293125 2.638125 -0.14875 1.33875 0 0 Z " fill="#E77123" transform="translate(279,246)"/>
<path d="M0 0 C2.64 0 5.28 0 8 0 C8 0.66 8 1.32 8 2 C6.35 2.33 4.7 2.66 3 3 C2.87625 4.134375 2.7525 5.26875 2.625 6.4375 C2.41875 7.613125 2.2125 8.78875 2 10 C1.01 10.495 1.01 10.495 0 11 C-1.28571429 3.57142857 -1.28571429 3.57142857 0 0 Z " fill="#F76B15" transform="translate(181,243)"/>
<path d="M0 0 C0.928125 0.350625 1.85625 0.70125 2.8125 1.0625 C7.87899235 2.55325804 12.84687163 1.68956871 18 1 C18 1.66 18 2.32 18 3 C13.21960489 5.70889056 8.19378452 5.25833153 3 4 C0.69140625 2.44921875 0.69140625 2.44921875 -1 1 C-0.67 0.67 -0.34 0.34 0 0 Z " fill="#B79283" transform="translate(122,214)"/>
<path d="M0 0 C0.33 0 0.66 0 1 0 C1.66 4.29 2.32 8.58 3 13 C1.35 13 -0.3 13 -2 13 C-2.66 10.69 -3.32 8.38 -4 6 C-2.68 6.33 -1.36 6.66 0 7 C0 4.69 0 2.38 0 0 Z " fill="#EA7023" transform="translate(241,247)"/>
<path d="M0 0 C0.99 1.32 1.98 2.64 3 4 C3.66 3.01 4.32 2.02 5 1 C5.33 3.97 5.66 6.94 6 10 C5.34 9.34 4.68 8.68 4 8 C3.67 10.31 3.34 12.62 3 15 C1.68 14.67 0.36 14.34 -1 14 C-0.01 14 0.98 14 2 14 C1.855625 13.32453125 1.71125 12.6490625 1.5625 11.953125 C1.376875 11.06109375 1.19125 10.1690625 1 9.25 C0.814375 8.36828125 0.62875 7.4865625 0.4375 6.578125 C0 4 0 4 0 0 Z " fill="#E0732C" transform="translate(235,236)"/>
<path d="M0 0 C2.33294775 -0.04241723 4.66702567 -0.04092937 7 0 C8 1 8 1 8.09765625 3.28515625 C8.08605469 4.20167969 8.07445312 5.11820313 8.0625 6.0625 C8.05347656 6.98160156 8.04445313 7.90070313 8.03515625 8.84765625 C8.02355469 9.55792969 8.01195312 10.26820313 8 11 C5.70986347 7.5647952 5.82157027 6.014669 6 2 C5.01 2 4.02 2 3 2 C3 2.66 3 3.32 3 4 C2.01 4 1.02 4 0 4 C0 2.68 0 1.36 0 0 Z " fill="#DB7132" transform="translate(369,242)"/>
<path d="M0 0 C0.99 0.495 0.99 0.495 2 1 C2 1.99 2 2.98 2 4 C2.99 4 3.98 4 5 4 C5 4.66 5 5.32 5 6 C5.66 6 6.32 6 7 6 C7 6.66 7 7.32 7 8 C6.34 8 5.68 8 5 8 C5.33 9.65 5.66 11.3 6 13 C5.01 12.67 4.02 12.34 3 12 C2.05078125 9.27734375 2.05078125 9.27734375 1.3125 5.9375 C1.06113281 4.83277344 0.80976563 3.72804687 0.55078125 2.58984375 C0.36902344 1.73519531 0.18726563 0.88054687 0 0 Z " fill="#E96E20" transform="translate(291,246)"/>
<path d="M0 0 C0.66 0.33 1.32 0.66 2 1 C1.39889717 5.00735217 -0.66602028 7.55469371 -3.0625 10.75 C-3.79597656 11.73484375 -4.52945313 12.7196875 -5.28515625 13.734375 C-5.85105469 14.48203125 -6.41695312 15.2296875 -7 16 C-7.67578125 14.265625 -7.67578125 14.265625 -8 12 C-6.85546875 9.859375 -6.85546875 9.859375 -5.1875 7.75 C-4.37345703 6.69039062 -4.37345703 6.69039062 -3.54296875 5.609375 C-3.03378906 5.07828125 -2.52460937 4.5471875 -2 4 C-1.34 4 -0.68 4 0 4 C0 2.68 0 1.36 0 0 Z " fill="#B48E7C" transform="translate(55,222)"/>
<path d="M0 0 C0.66 0 1.32 0 2 0 C2.33 1.32 2.66 2.64 3 4 C4.4540625 4.185625 4.4540625 4.185625 5.9375 4.375 C7.4534375 4.684375 7.4534375 4.684375 9 5 C9.33 5.66 9.66 6.32 10 7 C4.69090909 8.32727273 4.69090909 8.32727273 1.625 6.875 C0 5 0 5 -0.25 2.3125 C-0.1675 1.549375 -0.085 0.78625 0 0 Z " fill="#F66815" transform="translate(345,252)"/>
<path d="M0 0 C0.33 0 0.66 0 1 0 C1 2.31 1 4.62 1 7 C1.66 7 2.32 7 3 7 C3 6.01 3 5.02 3 4 C4.65 4.33 6.3 4.66 8 5 C8.33 4.34 8.66 3.68 9 3 C9.99 4.485 9.99 4.485 11 6 C10.34 6 9.68 6 9 6 C8.67 6.66 8.34 7.32 8 8 C7.01 7.34 6.02 6.68 5 6 C4.01 7.485 4.01 7.485 3 9 C2.01 9 1.02 9 0 9 C0 6.03 0 3.06 0 0 Z " fill="#E0A8B5" transform="translate(109,276)"/>
<path d="M0 0 C0.33 0 0.66 0 1 0 C1 1.98 1 3.96 1 6 C1.66 6 2.32 6 3 6 C2.67 9.3 2.34 12.6 2 16 C1.67 16 1.34 16 1 16 C1 14.02 1 12.04 1 10 C0.34 10 -0.32 10 -1 10 C-0.67 6.7 -0.34 3.4 0 0 Z " fill="#E6712A" transform="translate(230,234)"/>
<path d="M0 0 C3.96 0 7.92 0 12 0 C12 0.66 12 1.32 12 2 C6.06 2.495 6.06 2.495 0 3 C0 2.01 0 1.02 0 0 Z " fill="#F86A10" transform="translate(179,229)"/>
<path d="M0 0 C0.66 0.33 1.32 0.66 2 1 C3.08562787 5.93467213 2.90896604 10.05118487 2 15 C0.68 14.67 -0.64 14.34 -2 14 C-1.34 13.67 -0.68 13.34 0 13 C0 8.71 0 4.42 0 0 Z " fill="#C35F62" transform="translate(124,291)"/>
<path d="M0 0 C3.53600465 1.91135386 5.78972846 3.62642766 8 7 C6.68 7 5.36 7 4 7 C3.67 6.34 3.34 5.68 3 5 C1.02 5 -0.96 5 -3 5 C-2.01 3.35 -1.02 1.7 0 0 Z " fill="#C64D52" transform="translate(113,281)"/>
<path d="M0 0 C0 1.98 0 3.96 0 6 C-3.10551666 6 -4.35261084 5.4606285 -7 4 C-4.95178546 1.75671741 -3.30858805 0 0 0 Z " fill="#C0875F" transform="translate(50,293)"/>
<path d="M0 0 C0.33 0.66 0.66 1.32 1 2 C2.98 2 4.96 2 7 2 C6.67 2.66 6.34 3.32 6 4 C2.9375 4.625 2.9375 4.625 0 5 C-0.33 5.99 -0.66 6.98 -1 8 C-1.93065133 5.39417629 -2.14917407 4.35801776 -1.0625 1.75 C-0.711875 1.1725 -0.36125 0.595 0 0 Z " fill="#F66714" transform="translate(347,227)"/>
<path d="M0 0 C2.4375 0.375 2.4375 0.375 5 1 C5.33 1.66 5.66 2.32 6 3 C1.56923077 5.09230769 1.56923077 5.09230769 -1.3125 4.625 C-1.869375 4.41875 -2.42625 4.2125 -3 4 C-2.01 2.68 -1.02 1.36 0 0 Z " fill="#B38F7A" transform="translate(49,219)"/>
<path d="M0 0 C3.3 0.33 6.6 0.66 10 1 C10 1.66 10 2.32 10 3 C6.37 3 2.74 3 -1 3 C-0.67 2.01 -0.34 1.02 0 0 Z " fill="#F96C13" transform="translate(181,256)"/>
<path d="M0 0 C1.98 0.99 1.98 0.99 4 2 C3.34 4.31 2.68 6.62 2 9 C1.34 9 0.68 9 0 9 C0 6.03 0 3.06 0 0 Z " fill="#F26916" transform="translate(322,246)"/>
<path d="M0 0 C-1.5830577 4.2742558 -4.50568404 6.26531794 -8 9 C-8.99 8.34 -9.98 7.68 -11 7 C-9.35 6.34 -7.7 5.68 -6 5 C-6 4.34 -6 3.68 -6 3 C-2.53846154 0 -2.53846154 0 0 0 Z " fill="#B4907E" transform="translate(70,213)"/>
<path d="M0 0 C-0.66 0.66 -1.32 1.32 -2 2 C-2.99 1.34 -3.98 0.68 -5 0 C-7.27538323 -0.66613335 -7.27538323 -0.66613335 -9.6875 -1.125 C-10.49574219 -1.29257813 -11.30398437 -1.46015625 -12.13671875 -1.6328125 C-12.75160156 -1.75398437 -13.36648437 -1.87515625 -14 -2 C-14 -2.33 -14 -2.66 -14 -3 C-7.58580932 -4.32707393 -5.07439962 -4.18637969 0 0 Z " fill="#B38978" transform="translate(123,213)"/>
<path d="M0 0 C0.99 0.495 0.99 0.495 2 1 C2 1.66 2 2.32 2 3 C2.99 2.01 3.98 1.02 5 0 C5.99 0.33 6.98 0.66 8 1 C7.34 1 6.68 1 6 1 C6 2.32 6 3.64 6 5 C4.68 5.33 3.36 5.66 2 6 C0 3 0 3 0 0 Z " fill="#B8BDC8" transform="translate(131,301)"/>
<path d="M0 0 C0.99 0 1.98 0 3 0 C3 2.97 3 5.94 3 9 C2.01 9 1.02 9 0 9 C0 6.03 0 3.06 0 0 Z " fill="#F76715" transform="translate(276,245)"/>
<path d="M0 0 C1.485 0.99 1.485 0.99 3 2 C3.1875 5.125 3.1875 5.125 3 8 C2.01 8 1.02 8 0 8 C-1.43088528 5.13822943 -0.59991697 3.06624227 0 0 Z " fill="#F96613" transform="translate(321,231)"/>
<path d="M0 0 C1.99954746 -0.04254356 4.00041636 -0.04080783 6 0 C7 1 7 1 7.0625 4.0625 C7.041875 5.031875 7.02125 6.00125 7 7 C6.01 7.495 6.01 7.495 5 8 C4.34 7.34 3.68 6.68 3 6 C3.66 4.35 4.32 2.7 5 1 C3.35 1 1.7 1 0 1 C0 0.67 0 0.34 0 0 Z " fill="#AF8371" transform="translate(135,208)"/>
<path d="M0 0 C1.43931117 0.45261358 2.87638999 0.91232979 4.3125 1.375 C5.11300781 1.63023437 5.91351563 1.88546875 6.73828125 2.1484375 C9 3 9 3 12 5 C6.76824163 5.38281159 3.62197306 4.21854707 -1 2 C-0.67 1.34 -0.34 0.68 0 0 Z " fill="#B28A7A" transform="translate(118,204)"/>
<path d="M0 0 C1.32 0.33 2.64 0.66 4 1 C4 1.99 4 2.98 4 4 C4.99 4.33 5.98 4.66 7 5 C6.67 5.99 6.34 6.98 6 8 C4.0625 7.25 4.0625 7.25 2 6 C1.3125 4 1.3125 4 1 2 C0.67 1.34 0.34 0.68 0 0 Z " fill="#B4BDCF" transform="translate(76,244)"/>
<path d="M0 0 C0.99 0 1.98 0 3 0 C3 2.97 3 5.94 3 9 C2.01 9.495 2.01 9.495 1 10 C0.67 6.7 0.34 3.4 0 0 Z " fill="#F86B13" transform="translate(372,244)"/>
<path d="M0 0 C0.99 0.33 1.98 0.66 3 1 C3 2.65 3 4.3 3 6 C3.66 6 4.32 6 5 6 C5 5.34 5 4.68 5 4 C5.66 4 6.32 4 7 4 C7 5.32 7 6.64 7 8 C5.35 8 3.7 8 2 8 C1.34 5.36 0.68 2.72 0 0 Z " fill="#D67932" transform="translate(370,231)"/>
<path d="M0 0 C0.66 0 1.32 0 2 0 C2 0.99 2 1.98 2 3 C2.99 3.33 3.98 3.66 5 4 C3.68 4.99 2.36 5.98 1 7 C-0.32 6.01 -1.64 5.02 -3 4 C-2.01 4 -1.02 4 0 4 C0 2.68 0 1.36 0 0 Z " fill="#C3B7BB" transform="translate(53,214)"/>
<path d="M0 0 C1.65 0 3.3 0 5 0 C5 0.66 5 1.32 5 2 C4.01 2 3.02 2 2 2 C2 4.97 2 7.94 2 11 C1.67 11 1.34 11 1 11 C0.67 7.37 0.34 3.74 0 0 Z " fill="#A7ABB8" transform="translate(30,194)"/>
<path d="M0 0 C1.875 0.3125 1.875 0.3125 4 1 C4.66 1.99 5.32 2.98 6 4 C4.35 4 2.7 4 1 4 C0.67 4.99 0.34 5.98 0 7 C0 4.69 0 2.38 0 0 Z " fill="#C15455" transform="translate(102,271)"/>
<path d="M0 0 C0.99 0.33 1.98 0.66 3 1 C3.33 3.97 3.66 6.94 4 10 C3.34 10 2.68 10 2 10 C-0.09350689 6.5980513 -0.17942163 3.94727588 0 0 Z " fill="#F66712" transform="translate(291,240)"/>
<path d="M0 0 C1.0625 1.875 1.0625 1.875 2 4 C1.67 4.66 1.34 5.32 1 6 C-1.64 6 -4.28 6 -7 6 C-7 5.67 -7 5.34 -7 5 C-5.02 4.67 -3.04 4.34 -1 4 C-2.65 3.67 -4.3 3.34 -6 3 C-6 2.67 -6 2.34 -6 2 C-4.02 2 -2.04 2 0 2 C0 1.34 0 0.68 0 0 Z " fill="#E96E23" transform="translate(171,240)"/>
<path d="M0 0 C0.66 0.33 1.32 0.66 2 1 C2 3.64 2 6.28 2 9 C0.68 9 -0.64 9 -2 9 C-1.34 6.03 -0.68 3.06 0 0 Z " fill="#C18A61" transform="translate(42,227)"/>
<path d="M0 0 C3 0.3125 3 0.3125 6 1 C6.33 1.66 6.66 2.32 7 3 C5.35 3.66 3.7 4.32 2 5 C1.01 3.68 0.02 2.36 -1 1 C-0.67 0.67 -0.34 0.34 0 0 Z " fill="#B3A2A2" transform="translate(114,212)"/>
<path d="M0 0 C4.37934119 0.51958285 8.68803391 1.05675742 13 2 C13 2.33 13 2.66 13 3 C7.55106131 4.19876651 4.77830905 3.91360308 0 1 C0 0.67 0 0.34 0 0 Z " fill="#A6ABB8" transform="translate(36,195)"/>
<path d="M0 0 C0.66 0.33 1.32 0.66 2 1 C2 1.66 2 2.32 2 3 C3.32 3.33 4.64 3.66 6 4 C5.01 4.33 4.02 4.66 3 5 C2.34 4.67 1.68 4.34 1 4 C0.67 4.99 0.34 5.98 0 7 C-0.66 5.35 -1.32 3.7 -2 2 C-1.34 2 -0.68 2 0 2 C0 1.34 0 0.68 0 0 Z " fill="#D0B2BB" transform="translate(126,288)"/>
<path d="M0 0 C1.32 0 2.64 0 4 0 C4 1.32 4 2.64 4 4 C2.02 4.99 2.02 4.99 0 6 C0 4.02 0 2.04 0 0 Z " fill="#C6CEE2" transform="translate(111,275)"/>
<path d="M0 0 C0.99 0.66 1.98 1.32 3 2 C2.34 3.32 1.68 4.64 1 6 C-0.32 6 -1.64 6 -3 6 C-2.42655063 3.13275314 -2.1385485 2.1385485 0 0 Z " fill="#CDD4E3" transform="translate(73,235)"/>
<path d="M0 0 C1.65 0 3.3 0 5 0 C5 1.65 5 3.3 5 5 C3.68 4.01 2.36 3.02 1 2 C1 2.66 1 3.32 1 4 C0.34 4 -0.32 4 -1 4 C-0.67 2.68 -0.34 1.36 0 0 Z " fill="#EC6E23" transform="translate(218,228)"/>
<path d="M0 0 C1.9375 0.375 1.9375 0.375 4 1 C4.33 1.66 4.66 2.32 5 3 C4.01 3 3.02 3 2 3 C1.67 3.99 1.34 4.98 1 6 C-0.0625 4.125 -0.0625 4.125 -1 2 C-0.67 1.34 -0.34 0.68 0 0 Z " fill="#D33935" transform="translate(121,272)"/>
<path d="M0 0 C0.99 0.66 1.98 1.32 3 2 C2.34 3.32 1.68 4.64 1 6 C-1.475 5.01 -1.475 5.01 -4 4 C-2.68 3.67 -1.36 3.34 0 3 C0 2.01 0 1.02 0 0 Z " fill="#CCB6C5" transform="translate(105,266)"/>
<path d="M0 0 C0.33 0 0.66 0 1 0 C1 2.64 1 5.28 1 8 C1.66 8.33 2.32 8.66 3 9 C1.68 9.33 0.36 9.66 -1 10 C-0.67 6.7 -0.34 3.4 0 0 Z " fill="#EC7026" transform="translate(313,233)"/>
<path d="M0 0 C1.98 0.66 3.96 1.32 6 2 C5.01 2.33 4.02 2.66 3 3 C3 3.66 3 4.32 3 5 C1.68 4.34 0.36 3.68 -1 3 C-0.67 2.01 -0.34 1.02 0 0 Z " fill="#CFC7CF" transform="translate(56,219)"/>
<path d="M0 0 C0 0.99 0 1.98 0 3 C-2.64 3 -5.28 3 -8 3 C-6.23110084 -0.53779831 -3.70375662 0 0 0 Z " fill="#F76C12" transform="translate(373,256)"/>
<path d="M0 0 C1.32 0 2.64 0 4 0 C3.67 1.65 3.34 3.3 3 5 C2.34 5 1.68 5 1 5 C0.67 3.35 0.34 1.7 0 0 Z " fill="#C6D0E2" transform="translate(59,222)"/>
<path d="M0 0 C0.66 0.33 1.32 0.66 2 1 C2.625 3.0625 2.625 3.0625 3 5 C2.01 5.33 1.02 5.66 0 6 C0 5.34 0 4.68 0 4 C-0.66 4 -1.32 4 -2 4 C-1.34 2.68 -0.68 1.36 0 0 Z " fill="#C8CEDF" transform="translate(45,208)"/>
</svg>
